<svg width="42" height="62" viewBox="0 0 42 62" fill="none" xmlns="http://www.w3.org/2000/svg">
<path d="M21.0001 1C15.6958 1 10.6087 3.10714 6.85799 6.85786C3.10726 10.6086 1.00012 15.6957 1.00012 21C1.00012 39 21.0001 61 21.0001 61C21.0001 61 41.0001 39 41.0001 21C41.0001 15.6957 38.893 10.6086 35.1423 6.85786C31.3915 3.10714 26.3045 1 21.0001 1V1ZM21.0001 29C19.4179 29 17.8712 28.5308 16.5556 27.6518C15.24 26.7727 14.2146 25.5233 13.6091 24.0615C13.0036 22.5997 12.8452 20.9911 13.1538 19.4393C13.4625 17.8874 14.2244 16.462 15.3433 15.3431C16.4621 14.2243 17.8876 13.4624 19.4394 13.1537C20.9912 12.845 22.5998 13.0035 24.0616 13.609C25.5234 14.2145 26.7728 15.2398 27.6519 16.5554C28.5309 17.871 29.0001 19.4177 29.0001 21C29.0001 23.1217 28.1573 25.1566 26.657 26.6569C25.1567 28.1571 23.1219 29 21.0001 29Z" fill="#5B70F8"/>
<path opacity="0.2" d="M4.00012 18C3.97268 13.4187 5.5268 8.9683 8.40012 5.39999C6.0797 7.28236 4.21054 9.66072 2.92996 12.3603C1.64939 15.0599 0.989956 18.0121 1.00012 21C1.00012 39 21.0001 61 21.0001 61L23.8001 57.7C21.5001 55.2 4.00012 34.8 4.00012 18Z" fill="#000032"/>
<path opacity="0.25" d="M13.0001 21C12.984 19.3594 13.4728 17.7535 14.4001 16.4C13.4454 17.0682 12.6482 17.9369 12.0642 18.9453C11.4803 19.9538 11.1237 21.0776 11.0194 22.2382C10.9151 23.3989 11.0656 24.5683 11.4605 25.6647C11.8553 26.761 12.4848 27.7579 13.3051 28.5856C14.1254 29.4133 15.1166 30.0518 16.2095 30.4564C17.3023 30.8611 18.4703 31.0221 19.6318 30.9282C20.7933 30.8343 21.9203 30.4878 22.9339 29.9129C23.9476 29.3381 24.8234 28.5487 25.5001 27.6C24.2986 28.4174 22.8972 28.8921 21.4463 28.9732C19.9954 29.0542 18.5498 28.7386 17.2648 28.0601C15.9798 27.3816 14.9038 26.3659 14.1524 25.122C13.4011 23.8782 13.0027 22.4532 13.0001 21V21Z" fill="white"/>
<path d="M21.0001 1C15.6958 1 10.6087 3.10714 6.85799 6.85786C3.10726 10.6086 1.00012 15.6957 1.00012 21C1.00012 39 21.0001 61 21.0001 61C21.0001 61 41.0001 39 41.0001 21C41.0001 15.6957 38.893 10.6086 35.1423 6.85786C31.3915 3.10714 26.3045 1 21.0001 1V1Z" stroke="#061991" stroke-width="2" stroke-linecap="round" stroke-linejoin="round"/>
<path d="M21.0001 29C25.4184 29 29.0001 25.4183 29.0001 21C29.0001 16.5817 25.4184 13 21.0001 13C16.5818 13 13.0001 16.5817 13.0001 21C13.0001 25.4183 16.5818 29 21.0001 29Z" stroke="#061991" stroke-width="2" stroke-linecap="round" stroke-linejoin="round"/>
</svg>
